<svg xmlns="http://www.w3.org/2000/svg" version="1.0" preserveAspectRatio="xMidYMid meet" viewBox="269 256 485.84 477">

<g transform="translate(0.000000,1024.000000) scale(0.100000,-0.100000)" fill="#000000" stroke="none">
<path d="M2690 5295 c0 -1901 3 -2385 13 -2385 6 0 62 11 122 25 61 14 261 57 445 96 586 123 646 136 1105 235 248 53 517 110 598 127 l148 31 157 -31 c86 -18 461 -97 832 -178 371 -80 747 -161 835 -179 88 -19 258 -55 378 -81 120 -26 221 -45 223 -42 2 2 3 1075 2 2383 l-3 2380 -195 -38 c-107 -21 -384 -74 -615 -118 -231 -44 -514 -98 -630 -120 -115 -22 -365 -70 -555 -106 -190 -36 -363 -69 -385 -74 -33 -8 -118 6 -505 81 -545 105 -1169 225 -1430 275 -252 47 -490 93 -517 99 l-23 5 0 -2385z m611 1869 c101 -19 288 -55 414 -80 127 -25 322 -63 435 -84 113 -22 380 -73 593 -114 213 -41 393 -73 400 -71 7 3 73 16 147 29 74 14 194 36 265 50 72 14 236 45 365 70 129 24 456 88 727 140 270 53 499 96 507 96 14 0 16 -104 16 -1077 l-1 -1078 -236 -215 c-218 -198 -347 -317 -653 -600 -63 -59 -145 -133 -182 -166 -36 -32 -67 -64 -67 -70 -1 -6 172 -49 422 -104 232 -51 487 -107 567 -125 l145 -32 3 -161 c2 -151 1 -162 -16 -162 -10 0 -101 18 -203 40 -393 84 -959 205 -1283 274 l-338 72 149 135 c82 74 261 238 399 364 137 127 402 369 588 540 186 170 345 315 352 323 11 11 14 65 14 254 0 228 -1 240 -17 227 -40 -31 -275 -239 -552 -489 -588 -531 -764 -689 -1007 -910 -136 -124 -306 -277 -378 -342 l-131 -116 -3 1116 c-1 613 0 1117 2 1120 3 2 88 -10 189 -27 180 -30 187 -31 268 -16 46 8 296 53 554 100 259 47 480 85 492 85 25 0 19 -5 -242 -240 -77 -69 -235 -210 -350 -315 -116 -104 -306 -275 -423 -380 l-212 -190 -1 -85 c-4 -270 -3 -520 1 -520 3 0 77 66 165 146 88 81 221 201 295 268 75 66 228 204 340 305 113 101 261 234 329 295 69 61 224 201 346 311 121 110 246 223 278 250 l57 50 0 373 c0 351 -1 372 -18 372 -10 0 -85 -13 -167 -30 -83 -16 -368 -70 -635 -121 -267 -50 -576 -109 -687 -130 l-202 -38 -298 58 c-289 57 -533 104 -1118 215 -154 29 -283 51 -287 49 -5 -2 -8 -145 -8 -318 l0 -313 23 -5 c12 -3 146 -24 297 -47 151 -23 293 -44 315 -48 l40 -7 3 -1222 2 -1222 -37 -10 c-21 -5 -159 -35 -308 -67 -148 -31 -358 -76 -465 -99 -107 -23 -198 -40 -202 -38 -5 2 -8 857 -8 1899 l0 1894 23 0 c13 0 107 -16 208 -36z"/>
</g>
</svg>